<svg width="1002" height="499.99999999999994" xmlns="http://www.w3.org/2000/svg" style="vector-effect: non-scaling-stroke;" stroke="null">

 <g stroke="null">
  <title stroke="null">background</title>
  <rect stroke="null" fill="none" id="canvas_background" height="502" width="1004" y="-1" x="-1"/>
 </g>
 <g stroke="null">
  <title stroke="null">Layer 1</title>
  <g stroke="null" id="svg_9"/>
  <g stroke="null" id="svg_10"/>
  <g stroke="null" id="svg_11"/>
  <g stroke="null" id="svg_12"/>
  <g stroke="null" id="svg_13"/>
  <g stroke="null" id="svg_14"/>
  <g stroke="null" id="svg_15"/>
  <g stroke="null" id="svg_16"/>
  <g stroke="null" id="svg_17"/>
  <g stroke="null" id="svg_18"/>
  <g stroke="null" id="svg_19"/>
  <g stroke="null" id="svg_20"/>
  <g stroke="null" id="svg_21"/>
  <g stroke="null" id="svg_22"/>
  <g stroke="null" id="svg_23"/>
  <text stroke="#000" transform="matrix(2.8698388867744242,0,0,5.465325597932426,-146.38897131499152,-486.8861704812728) " xml:space="preserve" text-anchor="start" font-family="Helvetica, Arial, sans-serif" font-size="100" id="svg_26" y="169.280527" x="69.939724" stroke-width="0" fill="#000000">&lt;      /&gt;</text>
  <g stroke="null" id="svg_24">
   <g stroke="null" id="svg_1">
    <path stroke="null" id="svg_2" fill="#00AC65" d="m518.623483,317.967194l56.613507,60.781222l102.435646,0.000858l-97.562022,-104.74596c-5.64752,-6.063273 -14.890296,-6.064131 -20.538616,0l-40.948515,43.963879z"/>
    <path stroke="null" id="svg_3" fill="#24D883" d="m284.328166,378.748416l285.513141,0l5.395684,0l-56.613507,-60.781222l-40.553573,-43.539862c-38.558073,0.848034 -46.821488,31.299158 -99.485569,3.126053l-66.560625,71.459758l-27.695552,29.735273z"/>
    <path stroke="null" id="svg_4" fill="#F0F0F0" d="m378.584342,277.553385c52.664081,28.173105 60.927496,-2.278019 99.485569,-3.126053l-34.43516,-36.970172c-7.618235,-8.179067 -20.085311,-8.179925 -27.703547,0l-37.346862,40.096225z"/>
    <circle stroke="null" id="svg_5" fill="#FFBA4C" r="22.825342" cy="146.999031" cx="525.267953"/>
   </g>
   <path stroke="null" id="svg_6" d="m525.270352,181.3324c17.633309,0 31.97916,-15.401949 31.97916,-34.333369s-14.345851,-34.333369 -31.97916,-34.333369s-31.97916,15.401949 -31.97916,34.333369s14.345851,34.333369 31.97916,34.333369zm0,-51.500054c8.816654,0 15.98958,7.700975 15.98958,17.166685s-7.172926,17.166685 -15.98958,17.166685s-15.98958,-7.700975 -15.98958,-17.166685s7.172926,-17.166685 15.98958,-17.166685z"/>
   <path stroke="null" id="svg_7" d="m679.234019,387.1661c0.135112,-0.028325 0.266227,-0.068667 0.39894,-0.104717c0.119922,-0.032617 0.241443,-0.060942 0.359766,-0.099567c0.129516,-0.042058 0.254234,-0.094417 0.381351,-0.143342c0.119922,-0.04635 0.240643,-0.088408 0.357367,-0.140767c0.117523,-0.052358 0.22945,-0.1133 0.343776,-0.171667c0.12232,-0.0618 0.247039,-0.120167 0.366961,-0.189692c0.106331,-0.060942 0.207865,-0.131325 0.312596,-0.197417c0.119922,-0.07725 0.242242,-0.150208 0.358966,-0.234325c0.109529,-0.078967 0.212661,-0.166517 0.318193,-0.251492c0.103133,-0.0824 0.209463,-0.160509 0.310997,-0.248917c0.174286,-0.153642 0.339779,-0.317584 0.501273,-0.485817c0.026383,-0.028325 0.055164,-0.052358 0.082346,-0.079825c0.027182,-0.029183 0.048768,-0.060942 0.075951,-0.090125c0.155898,-0.172525 0.309398,-0.3502 0.451706,-0.536459c0.083945,-0.109867 0.157497,-0.2266 0.236646,-0.3399c0.07675,-0.111583 0.156698,-0.218875 0.228651,-0.33475c0.081547,-0.130467 0.151901,-0.266084 0.225453,-0.399984c0.059161,-0.106433 0.121521,-0.210292 0.176685,-0.320159c0.067156,-0.1339 0.123919,-0.272092 0.18388,-0.409425c0.051167,-0.116733 0.105531,-0.232609 0.151901,-0.351917c0.051167,-0.132183 0.09194,-0.266942 0.136711,-0.402559c0.043971,-0.129608 0.090341,-0.2575 0.127917,-0.390542c0.037576,-0.135617 0.066357,-0.27295 0.098336,-0.410284c0.03118,-0.1339 0.066357,-0.266942 0.091141,-0.403417c0.029581,-0.15965 0.047169,-0.321875 0.068755,-0.482384c0.01519,-0.116733 0.035977,-0.230034 0.047169,-0.348484c0.051966,-0.564784 0.051966,-1.13386 0,-1.697785c-0.011193,-0.11845 -0.031979,-0.232609 -0.047169,-0.348484c-0.020786,-0.161367 -0.039174,-0.322734 -0.068755,-0.482384c-0.024784,-0.137333 -0.059961,-0.269517 -0.091141,-0.403417c-0.031979,-0.137333 -0.06076,-0.274667 -0.098336,-0.411142c-0.037576,-0.132183 -0.083945,-0.260934 -0.127117,-0.389684c-0.04557,-0.134758 -0.086344,-0.270375 -0.13751,-0.403417c-0.047169,-0.119308 -0.100734,-0.234325 -0.151901,-0.351059c-0.059161,-0.138192 -0.116724,-0.276384 -0.18388,-0.411142c-0.054365,-0.109867 -0.116724,-0.213725 -0.176685,-0.320159c-0.073552,-0.1339 -0.144706,-0.269517 -0.225453,-0.399984c-0.071953,-0.115017 -0.151901,-0.223167 -0.228651,-0.33475c-0.079148,-0.1133 -0.151901,-0.229175 -0.236646,-0.3399c-0.143107,-0.186259 -0.295807,-0.363934 -0.451706,-0.536459c-0.026383,-0.029183 -0.047969,-0.060942 -0.075951,-0.090125l-97.563621,-104.744243c-8.779878,-9.42451 -23.064969,-9.42451 -31.844848,0.000858l-35.2946,37.894598l-34.907652,-37.478306c-0.049568,-0.054075 -0.098336,-0.10815 -0.148703,-0.15965l-34.278462,-36.801939c-5.195015,-5.577456 -12.121701,-8.648576 -19.505689,-8.648576c-7.383189,0 -14.310674,3.071978 -19.504889,8.648576l-37.463586,40.221542c-0.000799,0.001717 -0.002398,0.002575 -0.003997,0.004292l-94.135455,101.063706c-0.017589,0.018883 -0.032779,0.040342 -0.050367,0.060083c-0.166292,0.181967 -0.326987,0.369942 -0.478088,0.567359c-0.081547,0.106433 -0.1535,0.219734 -0.23025,0.330459c-0.079148,0.114158 -0.161495,0.224884 -0.235047,0.343334c-0.079948,0.127892 -0.149503,0.261792 -0.222255,0.393117c-0.06076,0.109008 -0.124719,0.215442 -0.180682,0.327025c-0.066357,0.133042 -0.12232,0.269517 -0.181482,0.405134c-0.051966,0.11845 -0.10713,0.234325 -0.1535,0.356209c-0.050367,0.131325 -0.09194,0.266942 -0.136711,0.400842c-0.043172,0.130467 -0.090341,0.259217 -0.127917,0.392259c-0.038375,0.135617 -0.066357,0.27295 -0.098336,0.410284c-0.03118,0.134758 -0.066357,0.266942 -0.09194,0.404275c-0.029581,0.15965 -0.047969,0.321017 -0.068755,0.482384c-0.01519,0.115875 -0.035977,0.230892 -0.047169,0.348484c-0.051966,0.564784 -0.051966,1.13386 0,1.698643c0.011193,0.117592 0.031979,0.232609 0.047169,0.348484c0.020786,0.161367 0.039174,0.321875 0.068755,0.482384c0.025583,0.136475 0.06076,0.269517 0.09194,0.404275c0.031979,0.137333 0.059961,0.274667 0.098336,0.410284c0.037576,0.133042 0.083945,0.261792 0.127917,0.392259c0.044771,0.1339 0.085544,0.268659 0.136711,0.399984c0.047169,0.121883 0.102333,0.237759 0.154299,0.357067c0.059161,0.134758 0.115125,0.271234 0.181482,0.404275c0.055964,0.111583 0.119922,0.218017 0.180682,0.327025c0.072753,0.131325 0.142307,0.265225 0.222255,0.393117c0.073552,0.11845 0.155898,0.229175 0.235047,0.342475c0.07675,0.110725 0.148703,0.224025 0.23025,0.330459c0.151102,0.197417 0.310997,0.385392 0.478088,0.567359c0.017589,0.018883 0.032779,0.040342 0.050367,0.060083c0.018388,0.018883 0.037576,0.035192 0.055964,0.054933c0.16949,0.178534 0.344575,0.3502 0.528456,0.512426c0.099935,0.08755 0.204667,0.1648 0.307799,0.2472c0.106331,0.084975 0.209463,0.173384 0.319792,0.25235c0.119122,0.085833 0.243042,0.160509 0.366161,0.238617c0.101534,0.065233 0.200669,0.133042 0.304602,0.193984c0.123919,0.071242 0.251036,0.131325 0.377354,0.1957c0.110328,0.054933 0.219057,0.115017 0.332583,0.1648c0.12232,0.054933 0.248638,0.098708 0.372557,0.146775c0.121521,0.04635 0.241443,0.096133 0.365362,0.137333c0.126318,0.0412 0.254234,0.071242 0.382151,0.105575c0.125518,0.033475 0.248638,0.071242 0.376555,0.098708c0.148703,0.031758 0.299005,0.0515 0.449307,0.073817c0.108729,0.016308 0.21506,0.038625 0.324588,0.050642c0.263828,0.027467 0.530055,0.042917 0.794682,0.042917l393.338874,-0.001717c0.003198,0 -0.002398,0 0,0l0,0c0.263029,0 0.526057,-0.01545 0.788286,-0.042917c0.119922,-0.012017 0.236646,-0.036908 0.354169,-0.054933c0.139909,-0.022317 0.279818,-0.039483 0.418927,-0.068667zm-114.009704,-107.092646c2.546341,-2.732936 6.687642,-2.732078 9.232384,0l83.914116,90.092478l-79.821583,0l-48.619516,-52.198738l35.2946,-37.89374zm-184.976257,7.8323c15.323614,7.499266 27.273427,10.148944 37.315683,10.148944c7.702181,0 14.288289,-1.551868 20.431485,-3.641054l11.435748,18.437878c1.539797,2.483161 4.076543,3.827312 6.661259,3.827312c1.522208,0 3.062005,-0.466075 4.423517,-1.440285c3.675205,-2.627361 4.670556,-7.9559 2.223351,-11.901662l-9.266761,-14.940166c6.512556,-2.516636 13.178612,-4.616122 21.43723,-5.220389l81.021601,86.987024c0.001599,0.001717 0,0 0.001599,0.000858s0,0 0.001599,0.000858l0,0l-252.305181,0l76.61887,-82.25932zm41.336263,-44.378455c2.174583,-2.334669 5.086285,-3.620454 8.198657,-3.620454s6.024074,1.285785 8.198657,3.620454l22.900277,24.586126c-6.945874,1.711518 -12.924378,4.132021 -18.469564,6.385148c-14.452182,5.869289 -26.233305,10.641628 -50.006612,0.356209l29.178585,-31.327483z"/>
   <path stroke="null" id="svg_8" d="m462.744698,334.315027c1.539797,2.484878 4.077343,3.829029 6.662858,3.829029c1.521409,0 3.060406,-0.466075 4.421918,-1.438568c3.676004,-2.626503 4.672955,-7.955042 2.226549,-11.900804l-0.143906,-0.23175c-2.446406,-3.946621 -7.409571,-5.016964 -11.084776,-2.390461c-3.676004,2.626503 -4.672955,7.955042 -2.226549,11.900804l0.143906,0.23175z"/>
  </g>
 </g>
</svg>